HIERARCHY
ROOT pelvis
{
  OFFSET 0 100 0
  CHANNELS 6 Xposition Yposition Zposition Zrotation Xrotation Yrotation
  JOINT pelvis_right_femur
  {
    OFFSET -10.78128 -3.44521 -0.5502486
    CHANNELS 3 Zrotation Xrotation Yrotation
    JOINT right_femur_tibia
    {
      OFFSET -0.8047443 -44.0398 -0.1307829
      CHANNELS 3 Zrotation Xrotation Yrotation
      JOINT right_tibia_foot
      {
        OFFSET 3.006224 -47.83518 -5
        CHANNELS 3 Zrotation Xrotation Yrotation
        End Site
        {
          OFFSET 0 -5 15
        }
      }
    }
  }
  JOINT pelvis_left_femur
  {
    OFFSET 10.78128 -3.44521 -0.5502486
    CHANNELS 3 Zrotation Xrotation Yrotation
    JOINT left_femur_tibia
    {
      OFFSET 0.8047443 -44.0398 -0.1307829
      CHANNELS 3 Zrotation Xrotation Yrotation
      JOINT left_tibia_foot
      {
        OFFSET -4.370144 -48.10324 -4.275266
        CHANNELS 3 Zrotation Xrotation Yrotation
        End Site
        {
          OFFSET 0 -5 15
        }
      }
    }
  }
  JOINT pelvis_spine1
  {
    OFFSET 0 6.468898 -3.129235
    CHANNELS 3 Zrotation Xrotation Yrotation
    JOINT spine1
    {
      OFFSET 0 23.15396 4.99043
      CHANNELS 3 Zrotation Xrotation Yrotation
      JOINT spine2
      {
        OFFSET 0 20.79997 -5.064912
        CHANNELS 3 Zrotation Xrotation Yrotation
        JOINT neck
        {
          OFFSET 0 14.38658 9.616178
          CHANNELS 3 Zrotation Xrotation Yrotation
          End Site
          {
            OFFSET 0 20 0
          }
        }
      }
      JOINT right_manubrium
      {
        OFFSET -5.722621 16.35077 3.967754
        CHANNELS 3 Zrotation Xrotation Yrotation
        JOINT right_clavicle
        {
          OFFSET -13.16364 1.694482 -4.693211
          CHANNELS 3 Zrotation Xrotation Yrotation
          JOINT right_humerus
          {
            OFFSET -28.5034 -0.3100689 -2.792744
            CHANNELS 3 Zrotation Xrotation Yrotation
            JOINT right_radius
            {
              OFFSET -25.15693 0.02248979 -1.271978
              CHANNELS 3 Zrotation Xrotation Yrotation
              End Site
              {
                OFFSET -15 0 0
              }
            }
          }
        }
      }
      JOINT left_manubrium
      {
        OFFSET 5.722621 16.35077 3.967754
        CHANNELS 3 Zrotation Xrotation Yrotation
        JOINT left_clavicle
        {
          OFFSET 13.16364 1.694482 -4.693211
          CHANNELS 3 Zrotation Xrotation Yrotation
          JOINT left_humerus
          {
            OFFSET 29.39168 -1.063119 -2.237045
            CHANNELS 3 Zrotation Xrotation Yrotation
            JOINT left_radius
            {
              OFFSET 24.59957 -0.9528479 0.9047498
              CHANNELS 3 Zrotation Xrotation Yrotation
              End Site
              {
                OFFSET 15 -0 -0
              }
            }
          }
        }
      }
    }
  }
}
MOTION
Frames: 23
Frame Time: 0.0416666666667
0 103.5113 0 2.439363 -3.166258 0.2077439 1.378127 -10.1027 7.944382 -0 36.79229 -0 -5.403783 -17.68398 -4.142202 -7.827038 11.11231 -23.31043 -0 4.630443 -0 9.184491 -15.15622 26.4845 -2.44498 -3.404377 4.827129 2.637162 10.06145 -7.615027 1.735524 21.03062 6.40152 3.076131 -25.5149 9.778935 7.075451 -19.11832 11.25786 85.81976 35.7843 -20.25404 -0 0 16.14004 -4.504039 7.893549 3.301424 6.2777 -20.26399 -1.549986 -95.01235 25.72845 23.61454 0 0 -15.84374 9.451553 16.63173 3.925778
0.3227646 103.3588 1.393846 1.969265 -1.802126 0.239932 2.00633 -12.93119 8.534629 -0 37.42773 -0 -4.962289 -17.78101 -3.767891 -7.648132 11.15638 -23.79084 -0 4.315271 -0 7.994976 -16.27786 26.17712 -2.468934 -3.429099 4.821915 2.634736 10.05835 -7.60167 1.749339 21.043 6.396765 3.070725 -25.51379 9.803444 7.092673 -19.12898 11.2492 85.79044 35.78126 -20.22746 -0 0 16.18217 -4.45112 7.86471 3.276654 6.282466 -20.23922 -1.555911 -95.04724 25.73323 23.6373 0 0 -15.78955 9.482278 16.67896 3.892193
0.4825022 102.6158 4.290392 0.5691327 -1.975454 0.3231411 2.986894 -21.83727 1.334323 -0 25.31904 -0 -9.16488 -8.285144 -1.374375 -6.487702 13.40834 -18.93121 -0 6.720957 -0 4.742853 -20.72046 22.37213 -1.976713 -2.97445 4.975178 2.651628 10.15839 -7.912025 1.444048 20.82605 6.441047 3.168812 -25.3852 9.18173 6.765577 -18.94865 11.43681 86.49688 35.73209 -20.99693 -0 0 15.42839 -5.610852 8.450845 3.762211 6.12316 -20.80768 -1.51799 -94.55321 26.07783 23.46671 0 0 -16.99638 8.150687 15.77864 5.471694
0.6224095 101.8645 7.554963 0.1439515 -0.5874638 0.467718 3.831012 -26.18263 1.388808 -0 21.74536 -0 -8.812251 -6.521156 -1.083724 -6.369693 13.89776 -17.82396 -0 7.378099 -0 5.261939 -21.57792 21.76078 -1.809157 -2.945266 5.069851 2.692261 10.1625 -8.100642 1.380462 20.65592 6.472564 3.213529 -25.4941 9.069959 6.671869 -19.05035 11.47877 86.88547 35.75115 -21.61643 -0 0 15.41572 -5.499427 8.487212 3.602724 6.148137 -21.07345 -1.556401 -94.61033 26.59135 23.72617 0 0 -17.95838 7.566429 15.54936 6.396754
0.7735122 101.0885 11.23377 -0.3123356 1.160163 0.7179322 5.038823 -30.71813 2.093965 -0 18.01241 -0 -8.214492 -4.774721 -0.8837391 -6.31555 14.34403 -16.83168 -0 8.573334 -0 6.179713 -22.18781 21.29066 -1.607639 -2.945018 5.186393 2.675242 10.13908 -8.301613 1.308266 20.54288 6.489114 3.276606 -25.48417 8.885325 6.584725 -19.16689 11.49698 87.39891 35.71204 -22.46037 -0 0 15.4864 -5.379208 8.486138 3.352653 6.146015 -21.38507 -1.658559 -94.96292 27.69336 24.31046 0 0 -19.06583 6.261559 15.48312 8.266006
0.9286239 100.2609 15.38928 -0.6079438 1.98586 1.077804 5.868697 -33.15707 2.184179 -0 15.08932 -0 -8.221816 -2.768417 -0.6202206 -6.269454 14.82932 -15.79015 -0 10.65767 -0 6.816615 -22.06334 20.63996 -1.425167 -2.874432 5.254781 2.629218 10.10913 -8.432521 1.247261 20.45155 6.545938 3.364944 -25.43386 8.73786 6.49292 -19.20044 11.50204 87.79088 35.74562 -23.03519 -0 0 15.43551 -5.5083 8.625309 3.257579 6.174382 -21.63987 -1.733317 -95.09139 28.44561 24.57881 0 0 -19.98879 5.325683 15.34664 9.620371
1.07017 99.43586 20.15824 -0.7866184 1.748775 1.500395 6.197166 -33.69813 1.271653 -0 12.66936 -0 -8.922834 -0.2424756 -0.2455366 -6.119859 15.48828 -14.30932 -0 14.1839 -0 6.691931 -21.10474 19.25866 -1.255026 -2.743797 5.293492 2.533007 10.06906 -8.504143 1.177003 20.44077 6.61153 3.465634 -25.25034 8.55079 6.405457 -19.15071 11.49394 88.10992 35.80118 -23.44228 -0 0 15.29525 -5.935758 8.895786 3.305228 6.171244 -21.85163 -1.807581 -95.1676 29.19167 24.73605 0 0 -20.71306 4.264856 15.23677 11.05132
1.178778 98.7442 25.60612 -0.8855639 0.662503 1.887266 6.243314 -32.51187 -0.1593417 -0 10.97696 -0 -9.91505 2.2662 0.06997831 -5.81482 16.05576 -12.4155 -0 19.4345 -0 5.699775 -19.19297 17.19797 -1.127062 -2.558255 5.304308 2.416883 10.03935 -8.513297 1.098363 20.4957 6.676782 3.556155 -24.97395 8.34536 6.330612 -19.02857 11.48877 88.28621 35.89559 -23.58221 -0 0 15.06485 -6.660106 9.302751 3.537404 6.125654 -21.9918 -1.85863 -95.09719 29.70822 24.6991 0 0 -21.13862 3.331331 15.1042 12.21588
1.239249 98.37209 31.69081 -0.9582331 -0.9047961 2.100535 6.395574 -29.84642 -1.305081 -0 10.16932 -0 -10.66881 4.170546 0.06740672 -5.33667 15.98106 -10.32947 -0 26.61377 -0 4.124948 -16.3452 14.99724 -1.063506 -2.339793 5.296503 2.279253 10.00076 -8.452848 1.01242 20.65361 6.726928 3.62344 -24.59088 8.116718 6.271751 -18.86073 11.47974 88.29915 36.01081 -23.45436 -0 0 14.80289 -7.629273 9.782713 3.926123 6.006006 -22.03193 -1.892304 -95.00377 30.17183 24.60792 0 0 -21.23536 2.338738 15.01981 13.33943
1.242608 98.47414 38.22777 -1.019699 -2.6398 2.00851 6.795436 -25.8317 -1.639146 -0 10.18372 -0 -10.86519 4.970873 -0.4308103 -4.693996 14.58208 -8.435938 -0 35.37338 -0 2.290377 -12.96079 13.35278 -1.090755 -2.113425 5.279638 2.138488 9.941179 -8.322626 0.9208859 20.91421 6.75654 3.654512 -24.13806 7.881913 6.224739 -18.688 11.47052 88.10982 36.15043 -23.02827 -0 0 14.56153 -8.769852 10.26897 4.459461 5.798098 -21.94477 -1.903436 -94.92954 30.60516 24.53102 0 0 -21.00583 1.301096 14.98719 14.40497
1.184315 99.06894 44.91212 -0.9861688 -4.42574 1.553262 7.192769 -20.39327 -1.279773 -0 10.58873 -0 -10.65758 4.40863 -1.312003 -3.945479 11.26749 -7.048758 -0 44.6178 -0 0.5217557 -9.715247 12.76298 -1.234296 -1.902062 5.257531 2.012655 9.836614 -8.126571 0.8204739 21.27498 6.770686 3.643403 -23.65161 7.655095 6.176513 -18.55112 11.46437 87.68919 36.33105 -22.28704 -0 0 14.38225 -10.02808 10.70152 5.134118 5.489539 -21.70764 -1.892438 -94.91198 31.07541 24.53334 0 0 -20.51237 0.1833564 14.9976 15.45974
1.067497 99.98628 51.40163 -0.738217 -6.172508 0.8144365 7.201767 -13.6315 -0.72594 -0 10.74263 -0 -10.50975 2.504692 -2.182989 -3.162795 5.82619 -6.267651 -0 52.26359 -0 -0.8764723 -7.333441 13.25827 -1.511327 -1.728572 5.233995 1.931129 9.679655 -7.884843 0.7029297 21.69831 6.780435 3.586543 -23.18799 7.450327 6.108445 -18.49155 11.47615 87.02558 36.57707 -21.2326 -0 0 14.28694 -11.36712 11.04383 5.964088 5.082458 -21.32055 -1.863239 -94.91067 31.54311 24.61106 0 0 -19.87122 -0.9392742 14.98194 16.42134
0.9119655 100.9057 57.45321 -0.288815 -7.694139 -0.02198343 6.744737 -6.224726 -0.3620176 -0 10.30645 -0 -10.84809 -0.361245 -2.637518 -2.291079 -1.21481 -5.854385 -0 55.77179 -0 -1.470821 -6.072281 14.39131 -1.914702 -1.609668 5.223195 1.914204 9.488916 -7.624947 0.5591366 22.11855 6.797233 3.487254 -22.79632 7.271782 6.002063 -18.54421 11.52598 86.13484 36.90928 -19.89198 -0 0 14.2896 -12.78488 11.29621 6.971789 4.59723 -20.81499 -1.826614 -94.83505 31.88377 24.72019 0 0 -19.22261 -1.922615 14.83542 17.13943
0.7662882 101.5111 63.04746 0.0938704 -8.726835 -0.8132709 6.240896 0.4925241 -0.1057047 -0 9.602015 -0 -11.60529 -3.446659 -2.643304 -1.059349 -8.392059 -5.261285 -0 53.54702 -0 -0.8480268 -5.420537 15.50442 -2.388448 -1.552119 5.270444 1.947533 9.325336 -7.366038 0.3894022 22.44191 6.821782 3.361731 -22.49797 7.107525 5.849418 -18.73504 11.6313 85.06459 37.32143 -18.31472 -0 0 14.42496 -14.30609 11.49636 8.166973 4.086575 -20.26532 -1.794219 -94.58428 31.86598 24.8202 0 0 -18.67051 -2.54493 14.44365 17.40423
0.6998021 101.6492 68.36882 0.07599269 -9.204908 -1.565894 6.200831 5.364571 0.3703998 -0 9.279146 -0 -12.17587 -6.020169 -2.585807 0.7093118 -13.89736 -4.059135 -0 46.34681 -0 0.8834704 -4.592997 16.21041 -2.822635 -1.546209 5.452081 1.963185 9.275056 -7.098165 0.2140653 22.57652 6.838702 3.244622 -22.26445 6.930175 5.657835 -19.07027 11.79042 83.88892 37.7503 -16.56387 -0 0 14.76221 -15.95881 11.69545 9.519223 3.638102 -19.7739 -1.768666 -94.12816 31.23785 24.9303 0 0 -18.22311 -2.601113 13.7352 17.06268
0.7528547 101.3392 73.62814 -0.3576584 -9.341551 -2.344274 6.584994 8.540917 0.9923009 -0 9.527087 -0 -12.03684 -8.12839 -2.76069 2.525693 -16.90144 -2.675735 -0 36.94306 -0 2.556898 -3.585783 16.68333 -3.099417 -1.563342 5.823089 1.870044 9.392604 -6.787346 0.07262535 22.48714 6.823368 3.177564 -22.03003 6.71618 5.439963 -19.51713 11.97193 82.70938 38.05346 -14.7319 -0 0 15.36061 -17.70887 11.90352 10.93111 3.346395 -19.4181 -1.741252 -93.55535 29.91236 25.11231 0 0 -17.78648 -2.053434 12.73247 16.15506
0.8959515 100.6666 78.94113 -0.8821149 -9.347719 -3.154285 6.806543 11.20968 1.116496 -0 9.958031 -0 -11.36488 -10.41713 -2.948023 3.5038 -18.12129 -2.16729 -0 28.08258 -0 2.623068 -3.23803 17.44662 -3.174568 -1.564218 6.345821 1.627664 9.644625 -6.412901 0.00146529 22.23485 6.76189 3.179604 -21.74237 6.472383 5.196384 -19.99929 12.12676 81.6487 38.06003 -12.95805 -0 0 16.18705 -19.42037 12.06442 12.25324 3.254144 -19.1917 -1.704565 -93.01835 28.11695 25.37757 0 0 -17.24576 -1.117322 11.5627 14.94901
1.068595 99.73505 84.39082 -1.200893 -9.239732 -3.95248 6.412911 14.10672 0.4309459 -0 10.42904 -0 -10.56337 -12.79169 -2.735371 3.322756 -18.73122 -2.949514 -0 21.1336 -0 0.7619341 -4.02441 18.67029 -3.100729 -1.521518 6.901638 1.280581 9.931068 -5.996427 0.008613332 21.93863 6.66386 3.232709 -21.40357 6.235929 4.919941 -20.43355 12.21842 80.81148 37.69467 -11.39496 -0 0 17.10708 -20.9168 12.11161 13.35108 3.324054 -19.02221 -1.66335 -92.6259 26.28051 25.6579 0 0 -16.57085 -0.1334626 10.40255 13.78559
1.245542 98.688 90.1072 -1.206541 -8.967013 -4.686425 5.362313 17.05925 -0.5633234 -0 11.54493 -0 -9.679191 -14.15753 -2.002364 2.269327 -19.27367 -4.566269 -0 16.41487 -0 -1.916763 -5.521136 19.98886 -2.958384 -1.432467 7.381159 0.9110468 10.17103 -5.590494 0.07526808 21.6892 6.550811 3.303183 -21.05576 6.042644 4.620544 -20.76833 12.24179 80.25155 37.02815 -10.16167 -0 0 17.96625 -22.08118 12.04245 14.15455 3.481724 -18.85688 -1.629559 -92.39784 24.7449 25.8741 0 0 -15.83415 0.6579063 9.394496 12.88293
1.448081 97.73798 96.24457 -0.869431 -8.550325 -5.288937 3.750352 19.53957 -1.159304 -0 14.36514 -0 -8.66868 -13.2254 -0.9105056 0.6710475 -19.61432 -6.430675 -0 13.99672 -0 -4.07023 -7.016669 20.99479 -2.793259 -1.306061 7.727403 0.5876585 10.34981 -5.257595 0.1758439 21.51544 6.438595 3.36639 -20.74467 5.906577 4.336191 -20.97427 12.21685 79.99808 36.20146 -9.361812 -0 0 18.6346 -22.86796 11.9228 14.63635 3.668665 -18.71096 -1.615846 -92.28831 23.63854 25.96186 0 0 -15.15267 1.193973 8.616507 12.28591
1.714726 97.17411 102.8926 -0.1954904 -8.066778 -5.656442 1.749904 20.90837 -0.9714565 -0 19.9632 -0 -7.715818 -9.092696 0.2577198 -1.251161 -19.26672 -8.139603 -0 13.92741 -0 -4.845856 -8.050905 21.46048 -2.614629 -1.148278 7.913224 0.3575435 10.50039 -5.062025 0.2895877 21.40833 6.335125 3.411723 -20.50393 5.825999 4.12248 -21.0176 12.17328 80.08944 35.35121 -9.115943 -0 0 18.98928 -23.25976 11.84732 14.77436 3.854297 -18.65036 -1.636033 -92.21692 22.94792 25.84235 0 0 -14.64796 1.523612 8.103917 11.93168
2.066338 97.28467 109.9555 0.6617352 -7.598245 -5.666285 -0.1720684 20.40106 -0.1045663 -0 28.72342 -0 -7.114071 -2.021366 1.185577 -3.190799 -17.71944 -9.383661 -0 15.73859 -0 -4.097437 -8.569026 21.32308 -2.417105 -0.9628721 7.92011 0.2540531 10.66442 -5.061986 0.4000354 21.34527 6.249566 3.438946 -20.35718 5.79644 4.03326 -20.86053 12.13815 80.56368 34.59589 -9.53983 -0 0 18.91429 -23.24991 11.90509 14.55065 4.027219 -18.7537 -1.703779 -92.09153 22.61066 25.42302 0 0 -14.44432 1.731317 7.867888 11.7249
2.487916 98.14642 117.1017 1.32987 -7.259938 -5.258114 -1.304154 17.42961 0.8977262 -0 39.11826 -0 -6.860623 5.719205 1.552341 -4.687131 -14.78864 -9.974974 -0 17.9382 -0 -2.506145 -8.919171 20.7458 -2.19581 -0.7623185 7.745453 0.2944109 10.859 -5.289355 0.4916851 21.29505 6.201215 3.456021 -20.32161 5.818033 4.09632 -20.49221 12.12656 81.41494 34.04232 -10.66964 -0 0 18.35462 -22.86529 12.15543 13.98481 4.190165 -19.07393 -1.824689 -91.83626 22.55525 24.65348 0 0 -14.6675 1.892476 7.887163 11.59194
